PSF_ID_stride6.mot
nRows=10
nColumns=38

name PSF_ID_stride6.mot
datacolumns 38
datarows 10
range 3.8400000000 3.8850000000
endheader
time	pelvis_tilt_moment	pelvis_list_moment	pelvis_rotation_moment	pelvis_tx_force	pelvis_ty_force	pelvis_tz_force	hip_flexion_r_moment	hip_adduction_r_moment	hip_rotation_r_moment	knee_angle_r_moment	ankle_angle_r_moment	subtalar_angle_r_moment	mtp_angle_r_moment	hip_flexion_l_moment	hip_adduction_l_moment	hip_rotation_l_moment	knee_angle_l_moment	ankle_angle_l_moment	subtalar_angle_l_moment	mtp_angle_l_moment	lumbar_extension_moment	lumbar_bending_moment	lumbar_rotation_moment	arm_flex_r_moment	arm_add_r_moment	arm_rot_r_moment	elbow_flex_r_moment	pro_sup_r_moment	wrist_flex_r_moment	wrist_dev_r_moment	arm_flex_l_moment	arm_add_l_moment	arm_rot_l_moment	elbow_flex_l_moment	pro_sup_l_moment	wrist_flex_l_moment	wrist_dev_l_moment
        3.8400000000	        0.2593918222	       -0.9172506831	        4.5204893945	       92.6728794637	      -76.8667169285	      -78.9595616276	        5.6505441309	      -59.8657906265	       27.9416801294	        8.7423438711	     -199.6064570777	       46.3012100828	       -0.0482719608	       -7.6375478026	        6.4164493681	       -3.3974854663	        0.1003214688	        2.1034850240	       -0.1039583215	        0.1335483133	       18.2522570428	       12.7447264479	      -39.1189216247	        0.0071633502	       -3.0349212853	       -3.8697356177	        4.7791388627	       -0.2202817800	       -0.3283739137	       -0.4869786154	        7.6026123715	        6.9206383961	        4.6714555472	        4.9976025177	        0.0373743973	        0.5820892666	       -0.3105769065	
        3.8450000000	        5.5242815280	       -9.7800613694	       -0.6932640827	       79.8076217436	      -91.2680810775	      -61.8500658836	        2.6100229929	      -54.2965340116	       24.7685147786	       -0.0132045866	     -187.7566137493	       43.1334431869	       -0.0584913550	       -9.5105443513	        5.1118311637	       -3.0193575345	       -0.2180444945	        2.2005561419	       -0.1607545283	        0.1381584032	       12.2412968192	        9.2219287095	      -42.0888248286	       -0.6596566410	       -3.2266783450	       -4.0768962199	        4.1311779500	       -0.2157344727	       -0.3674329966	       -0.4358017885	        7.6426586213	        6.6005436398	        4.7159919861	        4.4691633627	        0.0525135743	        0.5830557881	       -0.2585778303	
        3.8500000000	        4.3663200345	      -17.2763889725	       -7.2728814547	       59.8705495234	      -92.1319561940	      -47.4386797926	        2.2941778063	      -44.9767033587	       20.2953720567	       -7.0635768266	     -175.1899155525	       39.9430536293	       -0.0672380222	      -11.8868097372	        3.4564202916	       -2.3991419815	       -0.7495467777	        2.2915244307	       -0.2330499336	        0.1428045681	        6.2829050965	        6.4808361390	      -44.0074646664	       -1.2741329156	       -3.2256942417	       -4.0947823840	        3.4948669161	       -0.2085576021	       -0.3924312107	       -0.3829149367	        7.5870072390	        6.1555733676	        4.6561646446	        3.9689511296	        0.0638288820	        0.5752807343	       -0.2113696777	
        3.8550000000	       -0.0997067069	      -21.5393642932	      -14.5296337071	       36.5059249528	      -88.0815315082	      -34.5619054668	        3.3090293688	      -33.0297401679	       14.9660918011	      -12.0861668625	     -161.2842119902	       36.5266878176	       -0.0732379593	      -14.7323868876	        1.8371241818	       -1.6078221228	       -1.5321146512	        2.3722019623	       -0.3145258956	        0.1473183934	        0.9500484604	        5.5157791025	      -44.5584737988	       -1.8677090267	       -3.1321097266	       -4.0517756519	        2.8704125913	       -0.1978887597	       -0.3996597697	       -0.3284089534	        7.3719086606	        5.5724467983	        4.4665397442	        3.4968380933	        0.0717442320	        0.5530387840	       -0.1690925709	
        3.8600000000	       -4.3612243301	      -22.5993498489	      -20.6959973476	       16.9231223718	      -74.5366212892	      -21.5226533186	        7.5570799687	      -22.4608276918	       10.2320295233	      -15.3457168846	     -145.5607574457	       32.7317233785	       -0.0752132645	      -17.7220111418	        0.9109641736	       -0.8739126261	       -2.4513104986	        2.4426733595	       -0.3919882895	        0.1515863956	       -3.0193659231	        5.5274187730	      -44.4977973995	       -2.4681787073	       -2.8844664391	       -3.8373929120	        2.2606638479	       -0.1838716053	       -0.3988432972	       -0.2729064486	        6.9574665135	        4.8762156957	        4.1765754237	        3.0495771956	        0.0763751225	        0.5212497446	       -0.1316387713	
        3.8650000000	       -6.0520135441	      -20.2144029593	      -24.1128638871	        2.9318526797	      -57.8043196671	       -7.0020464444	       12.8431926824	      -15.3293629247	        7.3514049852	      -17.4621455146	     -128.0982303354	       28.6056230529	       -0.0723727971	      -20.4453012690	        0.6794254881	       -0.3198134629	       -3.3662080766	        2.5056230751	       -0.4557866800	        0.1555109972	       -5.0637499787	        7.1796912592	      -43.0334801162	       -3.0757726889	       -2.4991919615	       -3.4917454812	        1.6729790922	       -0.1661899220	       -0.3789305945	       -0.2170991720	        6.3317482073	        4.0591869794	        3.7851230999	        2.6241081913	        0.0781086131	        0.4793239474	       -0.0992017868	
        3.8700000000	       -4.2833508656	      -14.6462664508	      -23.7937738335	       -6.4503361464	      -41.5448961324	        8.8264888334	       17.7290366558	      -12.0498925710	        6.8581604222	      -19.3986798882	     -110.1425241766	       24.3978827879	       -0.0616740462	      -22.6480721552	        1.4975098023	        0.0132645845	       -4.1437377813	        2.5610562208	       -0.5013395122	        0.1588603443	       -4.7601383053	        9.3444431037	      -40.5240753759	       -3.6669499719	       -1.9594002658	       -3.0075284198	        1.1133701438	       -0.1445555666	       -0.3442096247	       -0.1614819373	        5.5070808849	        3.1087342628	        3.2858755733	        2.2130718952	        0.0759697073	        0.4265510626	       -0.0716620791	
        3.8750000000	       -1.6263961824	       -6.1028271695	      -22.4973684512	      -15.4351541989	      -37.3183090099	       22.8083957934	       22.1457291796	       -9.2572757791	        6.8615699571	      -21.4383533489	      -93.0339406520	       20.4898426574	       -0.0437029706	      -23.9675579745	        2.9680153604	        0.0663015415	       -4.6353853230	        2.6096876515	       -0.5157615727	        0.1609201815	       -3.5517384642	       11.3356511982	      -37.0658980268	       -4.1969841712	       -1.2885812581	       -2.4076244186	        0.5742325298	       -0.1192764170	       -0.2967094972	       -0.1055124957	        4.5290441382	        2.0426058337	        2.6909908897	        1.7960585661	        0.0713185771	        0.3636557350	       -0.0471632515	
        3.8800000000	        0.1648089000	        6.4031276703	      -20.1381852387	      -25.4833655351	      -38.5878240391	       31.9247744961	       26.7149670599	       -5.6338914105	        6.8139943879	      -22.9117721845	      -77.1687979345	       17.1879473711	       -0.0164024150	      -24.5101538043	        5.0931055381	       -0.0051132451	       -4.8824812893	        2.6441639312	       -0.5154603894	        0.1614824516	       -0.5828030141	       12.6303157810	      -32.5617850923	       -4.6334637132	       -0.4901069072	       -1.6932369378	        0.0504896277	       -0.0900614421	       -0.2362672487	       -0.0486795325	        3.4064953807	        0.8670577445	        1.9971683047	        1.3585226625	        0.0631349280	        0.2896568479	       -0.0243824651	
        3.8850000000	        0.4233764206	       22.4681345452	      -19.0953833658	      -37.5670806507	      -56.6306302499	       35.1721882935	       32.6642038516	        1.1619736344	        4.7015793706	      -23.3038517688	      -62.3426746369	       14.6990784765	        0.0191234739	      -24.6481710935	        7.5450495752	       -0.2538300974	       -5.0126332212	        2.6583125777	       -0.4860325970	        0.1598537002	        2.4267785191	       13.1043927654	      -27.2519756196	       -4.9514215508	        0.3700412303	       -0.9130370312	       -0.4674839260	       -0.0579906397	       -0.1679741575	        0.0094717863	        2.1988120798	       -0.3580103490	        1.2403663238	        0.8856058963	        0.0530026059	        0.2074120380	       -0.0010996030	
